<svg width="42" height="42" viewBox="0 0 42 42" fill="none" xmlns="http://www.w3.org/2000/svg">
<circle cx="21" cy="21" r="21" fill="white"/>
<path d="M16.5 31.5C17.3284 31.5 18 30.8284 18 30C18 29.1716 17.3284 28.5 16.5 28.5C15.6716 28.5 15 29.1716 15 30C15 30.8284 15.6716 31.5 16.5 31.5Z" fill="black"/>
<path d="M27 31.5C27.8284 31.5 28.5 30.8284 28.5 30C28.5 29.1716 27.8284 28.5 27 28.5C26.1716 28.5 25.5 29.1716 25.5 30C25.5 30.8284 26.1716 31.5 27 31.5Z" fill="black"/>
<path d="M30 14.2502H13.365L12.75 11.1002C12.7149 10.9282 12.6207 10.774 12.4836 10.6643C12.3466 10.5547 12.1755 10.4966 12 10.5002H9V12.0002H11.385L14.25 26.4002C14.2851 26.5721 14.3793 26.7263 14.5164 26.836C14.6534 26.9456 14.8245 27.0037 15 27.0002H28.5V25.5002H15.615L15 22.5002H28.5C28.6734 22.5044 28.8429 22.4484 28.9796 22.3418C29.1163 22.2351 29.2119 22.0843 29.25 21.9152L30.75 15.1652C30.7751 15.0539 30.7745 14.9383 30.7483 14.8273C30.722 14.7163 30.6708 14.6127 30.5985 14.5245C30.5261 14.4362 30.4347 14.3657 30.3309 14.3181C30.2272 14.2706 30.114 14.2473 30 14.2502ZM27.9 21.0002H14.715L13.665 15.7502H29.0625L27.9 21.0002Z" fill="black"/>
</svg>
