<svg width="98" height="98" viewBox="0 0 98 98" fill="none" xmlns="http://www.w3.org/2000/svg">
<path d="M26.4468 8.93722C17.3555 0.411941 9.48809 2.58855 3.71875 6.21642C8.26428 3.85828 18.0548 6.03508 26.9713 14.5604C35.7128 22.9043 39.2095 33.2435 36.4121 37.9598C41.4821 30.1599 35.363 17.2812 26.4468 8.93722Z" fill="#FFA800"/>
<path d="M36.4122 37.9597C36.2374 38.3226 36.0624 38.5039 35.7129 38.8666C35.8877 38.6853 36.2374 38.3224 36.4122 37.9597Z" fill="#FFA800"/>
<path d="M28.0201 14.9229C37.2861 23.8111 40.7828 35.0574 36.7616 39.2292C32.7404 43.4011 21.901 39.5921 13.3343 30.1598C4.59275 20.3647 0.0472257 8.21159 4.59275 5.85345C9.13847 3.31398 19.1038 6.39765 28.0201 14.9229Z" fill="#FFB904"/>
<path d="M13.3343 29.7973C5.29212 20.7278 0.746594 9.66289 3.71875 6.21655C-0.652 10.57 2.49493 23.086 10.7119 32.5181C19.1039 42.1318 31.1671 44.6713 36.5869 38.8668C32.7406 43.0389 21.901 39.2297 13.3343 29.7973Z" fill="white"/>
<path d="M83.7913 80.0424C67.7069 68.0706 52.6714 53.378 40.0836 37.0527L37.8108 34.1504C38.1605 36.1457 37.9855 37.7783 37.1115 38.6851C36.2374 39.592 34.6638 39.7735 32.7407 39.4107L38.5101 44.1267C52.3218 56.4612 65.0843 69.8843 75.7491 83.6699L77.6722 86.3907L80.6444 89.837C83.9661 93.8276 88.8614 95.6415 90.7847 93.2834C92.533 91.1068 90.9595 86.2091 87.463 82.7626L83.7913 80.0424Z" fill="#FFB904"/>
<path d="M80.4695 90.0189L77.4973 86.5726L75.5742 83.8518C64.7346 69.8847 52.1469 56.6431 38.3352 44.3086L34.1392 40.8623C32.9154 41.4065 31.6916 41.7692 30.293 41.9507L36.4121 46.3041C50.9231 57.9131 63.5108 71.336 73.3014 86.2101L75.0497 89.1124L77.8471 92.7403C80.994 96.9124 87.1131 97.4564 90.6098 93.6472C88.6867 95.8234 83.7914 94.0095 80.4695 90.0189Z" fill="white"/>
<path d="M39.0342 35.7829L40.258 37.4155C52.8459 53.7408 67.8813 68.4334 83.9657 80.4052L87.2874 83.4889C90.7841 86.9352 92.3574 91.8328 90.6091 94.0096C93.756 90.2004 93.4065 84.0331 89.735 80.7681L86.2384 77.8657C68.4056 67.7079 53.0205 53.3779 41.6564 35.9645L39.5585 32.6995C39.5587 33.6063 39.3839 34.6947 39.0342 35.7829Z" fill="#FFA800"/>
<path d="M94.4559 3.67676C96.7288 8.39283 93.9314 18.7323 85.7144 27.9831C77.1477 37.5967 66.3081 41.2246 62.2871 37.0525C67.7069 42.6757 79.7703 40.3176 88.1621 30.7039C96.379 21.2715 97.9526 9.66257 94.4559 3.67676Z" fill="#FFA800"/>
<path d="M85.3648 29.0716C76.7981 38.6853 65.9585 42.3132 61.9375 38.1411C57.9163 33.9691 61.5878 22.723 70.679 13.8348C80.12 4.76513 91.8337 0.0490589 94.1065 4.76513C96.554 9.48141 93.582 19.8206 85.3648 29.0716Z" fill="#FFB904"/>
<path d="M71.0285 13.8349C79.77 5.49097 90.4348 0.774693 93.7565 3.85836C89.5605 -0.676377 77.4972 2.58863 68.4061 11.1139C59.1401 19.8207 56.6924 32.3365 62.287 37.9597C58.2658 33.9692 61.9373 22.7231 71.0285 13.8349Z" fill="white"/>
<path d="M65.434 40.3176L63.8605 41.5874C48.1256 54.6476 33.9643 70.2471 22.4254 86.935L19.4533 90.3813C16.1316 94.0092 11.4111 95.6416 9.31299 93.8277C12.9844 97.0927 18.9288 96.73 22.0757 92.9208L24.8731 89.2929C34.6636 70.7911 48.4753 54.8287 65.259 43.0382L68.406 40.8616C67.5319 40.8618 66.4829 40.6805 65.434 40.3176Z" fill="#FFA800"/>
<path d="M68.756 42.8572C65.2593 42.8572 62.1124 41.7688 60.0145 39.4108C53.7206 32.8808 56.5178 20.0019 66.1336 9.84405C75.9241 -0.132505 88.3371 -3.03464 94.6311 3.49537C100.925 10.0254 98.1278 22.9043 88.512 33.0622C83.9665 37.7782 78.7215 41.0434 73.4765 42.3132C71.7281 42.6758 70.1546 42.8572 68.756 42.8572ZM85.8894 3.6769C80.6444 3.6769 74.001 6.76057 68.756 12.3837C60.7138 20.7277 57.9164 31.974 62.6369 36.69C64.9097 39.0482 68.4062 39.5924 72.7772 38.504C77.3227 37.4156 82.218 34.3319 86.2392 30.16C94.2814 21.8161 97.0787 10.5698 92.3583 5.8537C90.6099 4.40244 88.5118 3.6769 85.8894 3.6769Z" fill="black"/>
<path d="M68.7562 35.6016C67.7071 35.6016 67.0078 34.876 67.0078 33.7876C67.0078 32.6992 67.7071 31.9737 68.7562 31.9737C70.854 31.9737 75.9243 30.5226 80.9943 25.2622C81.6936 24.5366 82.7427 24.5366 83.442 25.2622C84.1413 25.9877 84.1413 27.0761 83.442 27.8016C78.0222 33.6063 72.2528 35.6016 68.7562 35.6016Z" fill="black"/>
<path d="M29.0691 42.8573C22.95 42.8573 15.6071 39.4109 9.48805 32.8807C-0.127712 22.9042 -2.9249 10.0255 3.36896 3.49548C6.5159 0.230476 11.2364 -0.676393 16.6562 0.593343C21.9012 1.86308 27.146 5.12808 31.6917 9.84436C36.2373 14.5604 39.3844 20.0022 40.6082 25.4441C42.0068 31.2485 40.958 36.1461 37.8108 39.2298C35.7127 41.7691 32.5658 42.8573 29.0691 42.8573ZM12.1105 3.67701C9.48805 3.67701 7.38997 4.40255 5.8166 6.03515C1.0961 10.9328 3.89348 21.9975 11.9357 30.3415C19.9779 38.6854 30.8175 41.5877 35.363 36.6901C37.6359 34.332 38.1604 30.7043 37.1113 26.1694C36.0623 21.4533 33.0901 16.3744 29.0691 12.2023C25.0479 8.03022 20.1527 4.94675 15.6071 3.85835C14.5581 3.85835 13.3343 3.67701 12.1105 3.67701Z" fill="black"/>
<path d="M32.5659 32.1555C31.5168 32.1555 30.8175 31.4299 30.8175 30.3415C30.8175 28.1649 29.4189 22.9044 24.3487 17.6442C23.6494 16.9186 23.6494 15.8302 24.3487 15.1047C25.048 14.3792 26.097 14.3792 26.7963 15.1047C32.2161 20.7278 34.314 26.7137 34.314 30.3415C34.3142 31.2484 33.4399 32.1555 32.5659 32.1555Z" fill="black"/>
<path d="M43.4055 53.378L42.5314 52.4711C39.0347 49.3874 35.713 46.848 32.5661 44.4898L25.3979 39.4109L30.2932 39.048C32.5661 38.8667 34.3144 38.1411 35.5382 36.6899C36.9368 35.4201 37.6361 33.4249 37.8111 31.0667L38.1608 25.9878L45.154 36.6899C46.7276 38.6851 48.3009 40.8619 50.399 43.4014L51.2731 44.4898L50.399 45.5782C48.6507 47.7548 46.9023 49.9316 44.8044 52.1082L43.4055 53.378ZM34.489 41.769C37.2864 43.7643 40.2583 46.1224 43.2305 48.6619C44.4543 47.3922 45.5034 45.9411 46.5522 44.6714C44.8039 42.4947 43.4053 40.6808 42.1815 38.8669L40.2583 35.7832C39.7338 37.0529 38.8597 38.3227 37.9855 39.4111C36.9366 40.3177 35.8876 41.2248 34.489 41.769Z" fill="black"/>
<path d="M83.4417 98C83.2669 98 83.092 98 82.9172 98C79.7703 97.8187 76.9729 96.3674 75.2245 94.1908L72.2524 90.2003C65.9585 78.0471 57.5666 66.9822 47.776 57.3685L46.3774 56.2801L47.776 55.0104C49.5244 53.1964 51.4475 51.564 53.3706 49.9314L54.5944 48.843L55.6435 50.1128C64.2102 59.7264 73.4762 68.0704 83.092 74.7819L85.8894 76.5959L89.386 79.4982C91.6589 81.3121 93.0575 84.0329 93.2323 87.1166C93.407 90.2003 92.3582 93.1024 90.2601 95.4606C88.8615 97.0932 86.2391 98 83.4417 98ZM75.2247 88.3863L77.8471 92.0142C78.8962 93.4653 80.8193 94.3724 82.9172 94.3724C84.8403 94.5537 86.7634 93.8282 87.8125 92.5584C89.2111 91.1074 89.9104 89.1121 89.7356 87.1166C89.5608 85.1213 88.6865 83.3074 87.1132 82.0377L83.6165 79.3169L80.9941 77.5029C71.5533 70.7914 62.462 62.8103 54.0701 53.5593C53.3708 54.4662 52.4965 55.3732 51.6225 56.2801C61.0633 65.7124 69.1056 76.5961 75.2247 88.3863Z" fill="black"/>
<path d="M22.6004 86.9352C34.1392 70.2473 48.3005 54.6476 64.0354 41.5876L66.8328 39.2294C64.9097 39.5923 63.3361 39.4108 62.462 38.5039C61.588 37.597 60.3641 37.597 60.8885 35.6016L57.217 39.955C45.1534 54.1034 32.2159 67.1636 18.754 78.4097L16.1315 80.405L12.9846 83.4886C9.13838 86.935 7.39004 92.0139 9.6629 94.0094C11.7608 95.8233 16.4813 94.1907 19.8032 90.563L22.6004 86.9352Z" fill="#FFB904"/>
<path d="M12.9846 83.4888L16.3063 80.4052L18.9287 78.4099C32.3907 67.1636 45.3282 54.1036 57.0418 39.7736L60.3635 35.4202C59.839 34.1505 59.4894 32.8808 59.3145 31.4297L55.1185 37.7784C43.9296 52.8339 30.9921 65.8941 16.656 76.052L13.8586 77.8659L10.3621 80.768C6.34095 84.033 5.81662 90.3817 9.48808 94.0096C7.38999 92.0143 9.13833 86.9354 12.9846 83.4888Z" fill="white"/>
<path d="M14.5585 98.0001C11.7611 98.0001 9.13869 97.0932 7.39035 95.2793C5.29246 93.1027 4.24342 90.2003 4.4182 87.1166C4.59297 84.033 5.99176 81.1308 8.43939 79.3169L11.9361 76.4146C11.9361 76.4146 12.1108 76.4146 12.1108 76.2332L14.9082 74.4193C15.6075 73.8751 16.4818 73.3309 17.1811 72.7867C18.0552 72.2425 19.1042 72.4238 19.6287 73.1496C20.1532 74.0564 19.9785 75.1448 19.279 75.689C18.4049 76.2332 17.7054 76.7774 16.8313 77.3216L14.034 79.1356L10.5373 81.8564C8.96372 83.489 8.08965 85.3027 7.91487 87.2982C7.7401 89.2934 8.43939 91.2887 9.83799 92.5585C11.0618 93.8282 12.9849 94.3724 15.083 94.3724C17.1809 94.1911 18.9292 93.284 19.9783 92.0143L22.6007 88.3864C32.566 69.8846 46.5525 53.7407 63.5112 41.7688C62.2874 41.2246 61.0636 40.3178 60.0145 39.4107C58.9655 38.3223 58.2662 37.2341 57.7416 35.7828L55.8185 38.6852C47.4266 49.9315 38.3353 59.9078 28.37 68.4333C27.6707 69.1588 26.4469 68.9775 25.9224 68.252C25.2231 67.5264 25.3979 66.2567 26.0972 65.7125C35.7129 57.3685 44.8042 47.7549 52.8464 36.6899L57.0424 30.3412C57.3921 29.6157 58.2662 29.4344 58.9655 29.6157C59.6648 29.797 60.1893 30.5226 60.1893 31.2483C60.3641 33.6064 61.0634 35.4204 62.4621 36.8714C63.8607 38.1412 65.6091 39.048 67.8819 39.2296C68.5812 39.2296 69.2805 39.7738 69.4555 40.4993C69.6303 41.2248 69.2807 41.9504 68.7562 42.4946L65.6093 44.6712C49.0003 56.2801 35.3636 72.0612 25.7478 90.3817L25.573 90.563L22.7757 94.1909C21.2021 96.3675 18.4049 97.8187 15.4327 98.0001C15.083 98.0001 14.9082 98.0001 14.5585 98.0001Z" fill="black"/>
<path d="M24.5235 70.7912C24.5235 69.7028 23.8242 68.9773 22.7752 68.9773C21.7262 68.9773 21.0269 69.7028 21.0269 70.7912C21.0269 71.8796 21.7262 72.6052 22.7752 72.6052C23.8242 72.6052 24.5235 71.8796 24.5235 70.7912Z" fill="black"/>
</svg>
