<svg width="96" height="96" viewBox="0 0 96 96" fill="none" xmlns="http://www.w3.org/2000/svg">
<path d="M48.3641 85.7159C27.4011 85.7159 10.2495 68.1993 10.2495 46.7902V33.8152L86.4793 33.8152V46.7902C86.4793 68.1993 69.3272 85.7159 48.3641 85.7159Z" fill="#CAEEC5"/>
<path d="M10.4507 50.7793V46.0931C29.4784 61.4606 46.0697 37.9824 60.5475 46.1911C71.3846 52.3357 81.6523 53.1127 86.4799 46.0931L86.4802 46.0991V46.7902C86.4802 68.1993 69.3281 85.716 48.3651 85.716C28.7197 85.716 12.4226 70.3331 10.4507 50.7793Z" fill="#FFB904"/>
<path d="M37.9549 57.7868C37.9864 57.8428 38.0134 57.9 38.0377 57.958C40.7424 57.2256 43.7141 58.3933 45.1764 60.9792L47.8127 65.6413C49.5594 68.7315 48.5124 72.7197 45.4873 74.5035C42.4612 76.2882 38.5567 75.22 36.8091 72.1292L34.1739 67.4667C32.7105 64.878 33.2083 61.6602 35.1872 59.6346C35.1351 59.568 35.0863 59.4979 35.0436 59.422L37.9549 57.7868Z" fill="#5B7F81"/>
<path d="M10.2497 32.1457C9.32778 32.1457 8.58022 32.8933 8.58022 33.8152L8.58022 46.7902C8.58022 57.5841 12.7257 67.7621 20.2532 75.4496C27.7896 83.1467 37.7732 87.3855 48.3645 87.3855C58.9558 87.3855 68.9395 83.1467 76.4762 75.4496C84.0036 67.7621 88.1494 57.5841 88.1494 46.7902V33.8152C88.1494 32.8933 87.4018 32.1457 86.4799 32.1457L23.3097 32.1457L10.4749 9.77156C10.0165 8.97187 8.99609 8.6953 8.19603 9.15412C7.39616 9.61274 7.11978 10.6333 7.57859 11.433L19.4601 32.1456H10.2497V32.1457ZM84.81 35.4849V46.7904C84.81 67.3337 68.4606 84.0465 48.3643 84.0465C28.2685 84.0465 11.9192 67.3335 11.9192 46.7904L11.9192 35.4849H21.3754L34.1845 57.8143C31.3018 60.3711 30.5083 64.6939 32.508 68.1583L35.2545 72.9154C36.7288 75.4685 39.486 77.0546 42.451 77.0546C43.8977 77.0546 45.3248 76.6721 46.5771 75.9487C48.4883 74.8455 49.8574 73.0575 50.4315 70.9138C51.0057 68.7705 50.7141 66.5377 49.6112 64.6264L46.8649 59.8695C45.3906 57.3165 42.633 55.7306 39.6683 55.7306C38.7893 55.7306 37.9133 55.8761 37.0798 56.151L25.225 35.4849L84.81 35.4849ZM37.2177 59.7246C37.2752 59.691 37.3341 59.6593 37.3924 59.6287C38.0908 59.2633 38.8778 59.07 39.6681 59.07C41.4439 59.07 43.0933 60.0163 43.9731 61.5396L46.719 66.2959C47.3762 67.4347 47.5495 68.7679 47.206 70.0498C46.8627 71.3316 46.0465 72.3996 44.9074 73.0569C44.1615 73.4876 43.312 73.7154 42.4508 73.7154C40.675 73.7154 39.0257 72.7691 38.146 71.2457L35.3995 66.4886C34.0354 64.1252 34.8484 61.0922 37.2177 59.7246ZM88.6433 94.3303C88.6433 95.2522 87.8959 95.9998 86.9738 95.9998H9.75622C8.83428 95.9998 8.08672 95.2522 8.08672 94.3303C8.08672 93.4084 8.83428 92.6608 9.75622 92.6608H86.9738C87.8959 92.6608 88.6433 93.4084 88.6433 94.3303ZM67.2415 64.2208C67.2415 63.2989 67.989 62.5513 68.911 62.5513H69.2745C70.1965 62.5513 70.944 63.2989 70.944 64.2208C70.944 65.1427 70.1965 65.8903 69.2745 65.8903H68.911C67.9888 65.8903 67.2415 65.1431 67.2415 64.2208ZM24.8886 59.1735C24.8886 60.0954 24.1412 60.843 23.2191 60.843H22.8555C21.9336 60.843 21.186 60.0954 21.186 59.1735C21.186 58.2516 21.9336 57.504 22.8555 57.504H23.2191C24.1412 57.504 24.8886 58.2516 24.8886 59.1735ZM53.8639 57.0744C53.8639 56.1525 54.6115 55.4049 55.5334 55.4049H55.897C56.8189 55.4049 57.5665 56.1525 57.5665 57.0744C57.5665 57.9964 56.8189 58.7439 55.897 58.7439H55.5334C54.6115 58.7439 53.8639 57.9967 53.8639 57.0744ZM58.5154 72.2539H58.8778C59.7998 72.2539 60.5473 73.0014 60.5473 73.9234C60.5473 74.8453 59.7998 75.5929 58.8778 75.5929H58.5154C57.5931 75.5929 56.8459 74.8453 56.8459 73.9234C56.8459 73.0014 57.5931 72.2539 58.5154 72.2539ZM51.699 12.129C49.7631 9.18055 48.9514 4.95337 49.6311 1.35974C49.8025 0.453743 50.6755 -0.141757 51.582 0.0294308C52.488 0.200806 53.0835 1.07418 52.9123 1.98018C52.3932 4.72574 53.0271 8.06756 54.4903 10.296C57.1853 14.3998 57.7748 21.7213 54.312 25.6663C53.982 26.0424 53.5204 26.2346 53.0567 26.2346C52.6656 26.2346 52.2732 26.0981 51.9561 25.8197C51.2631 25.2112 51.1947 24.1566 51.8027 23.4636C53.9608 21.0047 53.9106 15.4965 51.699 12.129ZM42.322 12.1286C40.3866 9.18149 39.5745 4.95431 40.2538 1.35993C40.4252 0.453931 41.2982 -0.142132 42.2042 0.0294308C43.1104 0.200618 43.7059 1.07399 43.5349 1.97999C43.0159 4.72649 43.6502 8.06831 45.1133 10.2958C47.808 14.4009 48.3972 21.7224 44.9346 25.6661C44.6046 26.0421 44.1432 26.2342 43.6793 26.2342C43.2882 26.2342 42.8953 26.0976 42.5785 25.8191C41.8857 25.2107 41.8172 24.1558 42.4255 23.463C44.5834 21.0052 44.5332 15.4971 42.322 12.1286Z" fill="black"/>
</svg>
