<svg width="93" height="93" viewBox="0 0 93 93" fill="none" xmlns="http://www.w3.org/2000/svg">
<path d="M83.1408 0C82.0305 0 80.9516 0.314318 80.0197 0.911956C79.119 1.48694 78.3968 2.29702 77.9266 3.25701L60.9814 38.0625L59.2876 41.5405L62.7656 43.2314L66.2408 44.9251L69.7188 46.6189L71.4124 43.1407L88.352 8.33812C88.7372 7.55069 88.9411 6.67263 88.9411 5.80038C88.9411 2.59992 86.3383 0 83.1408 0Z" fill="#E5E8EC"/>
<path d="M15.4675 50.2696C13.5132 50.2696 11.6524 49.7003 10.2307 48.6638C8.64459 47.5111 7.73535 45.8542 7.73535 44.118C7.73535 42.3818 8.64459 40.725 10.2307 39.5722C11.6524 38.5357 13.5132 37.9663 15.4675 37.9663C15.4787 37.9663 15.4873 37.9663 15.4958 37.9663C15.66 36.4255 16.5408 34.9839 17.9626 33.9472C19.3872 32.9135 21.2481 32.3414 23.2024 32.3414C23.2109 32.3414 23.2221 32.3414 23.2306 32.3414C23.3949 30.8006 24.2729 29.359 25.6975 28.3252C27.1221 27.2886 28.983 26.7194 30.9372 26.7194C30.9457 26.7194 30.9543 26.7194 30.9655 26.7194C31.1297 25.1786 32.0078 23.737 33.4324 22.7005C34.854 21.6667 36.7149 21.0947 38.6692 21.0947C38.6804 21.0947 38.6889 21.0947 38.6975 21.0947C38.8617 19.5539 39.7425 18.1123 41.1643 17.0758C42.5889 16.042 44.4498 15.4727 46.404 15.4727C48.3583 15.4727 50.219 16.042 51.6436 17.0758C53.0681 18.1125 53.9462 19.5541 54.1104 21.0947C54.119 21.0947 54.1275 21.0947 54.1387 21.0947C56.093 21.0947 57.9538 21.6667 59.3757 22.7005C60.8003 23.737 61.6783 25.1786 61.8426 26.7194C61.8538 26.7194 61.8623 26.7194 61.8708 26.7194C63.8278 26.7194 65.6858 27.2888 67.1104 28.3252C68.5348 29.359 69.4128 30.8006 69.5771 32.3414C69.5856 32.3414 69.5968 32.3414 69.6053 32.3414C71.5596 32.3414 73.4205 32.9135 74.8451 33.9472C76.2696 34.9839 77.1477 36.4255 77.3119 37.9663C77.3204 37.9663 77.329 37.9663 77.3402 37.9663C79.2944 37.9663 81.1553 38.5357 82.577 39.5722C84.1631 40.7248 85.0723 42.3818 85.0723 44.118C85.0723 45.8542 84.1631 47.5111 82.577 48.6638C81.1553 49.7005 79.2946 50.2696 77.3402 50.2696L15.4675 50.2696Z" fill="#FFD2A6"/>
<path d="M83.7157 38.0087C82.345 37.0117 80.6599 36.3661 78.8614 36.131C78.3431 34.6864 77.3547 33.3837 75.9809 32.384C74.6101 31.387 72.9249 30.7413 71.1263 30.5062C70.6081 29.0619 69.6196 27.7589 68.2458 26.7592C66.878 25.7652 65.1927 25.1166 63.3915 24.8842C62.876 23.437 61.8877 22.1342 60.514 21.1372C59.1433 20.1403 57.4581 19.4946 55.6595 19.2595C55.1413 17.815 54.1528 16.5122 52.779 15.5123C51.0287 14.2406 48.7628 13.5383 46.4036 13.5383C44.0444 13.5383 41.7786 14.2407 40.0283 15.5123C38.6546 16.5122 37.6662 17.815 37.1479 19.2595C35.3494 19.4946 33.6644 20.1403 32.2934 21.1372C30.9198 22.1342 29.9313 23.437 29.4158 24.8842C27.6144 25.1164 25.9293 25.765 24.5613 26.7592C23.1876 27.7591 22.1992 29.0619 21.6808 30.5062C19.8824 30.7413 18.1972 31.387 16.8262 32.384C15.4526 33.3837 14.4641 34.6866 13.9459 36.131C12.1474 36.3661 10.4623 37.0117 9.09138 38.0087C7.00119 39.5295 5.80029 41.7557 5.80029 44.1178C5.80029 46.4799 7.00119 48.706 9.09138 50.227C10.8446 51.5013 13.1075 52.2037 15.4667 52.2037L77.34 52.2037C79.6994 52.2037 81.9621 51.5013 83.7154 50.227C85.8055 48.706 87.0063 46.4799 87.0063 44.1178C87.0066 41.7559 85.8059 39.5297 83.7157 38.0087ZM77.3404 48.3351C74.137 48.3351 18.6703 48.3351 15.4671 48.3351C12.2637 48.3351 9.66655 46.446 9.66655 44.1178C9.66655 42.1833 11.4622 40.5521 13.9037 40.0563C14.64 40.5916 15.7957 41.0986 17.2345 41.0986C18.0926 41.0986 19.0528 40.9173 20.0838 40.45C20.0867 40.45 20.0923 40.4471 20.095 40.4444C20.1121 40.4388 20.1291 40.4303 20.146 40.4246V40.4217C20.8087 40.1158 21.2675 39.4474 21.2675 38.6687C21.2675 37.6008 20.4037 36.7342 19.3359 36.7342C19.0442 36.7342 18.7723 36.7993 18.5231 36.9155V36.9126C18.2144 37.057 17.9369 37.1421 17.6876 37.1874C18.4439 35.4994 20.6247 34.2759 23.202 34.2759C24.0971 34.2759 24.9438 34.423 25.7 34.6866C25.3375 34.1372 25.1364 33.5196 25.1364 32.871C25.1364 30.7355 27.32 28.9711 30.1523 28.6907C31.5259 30.1379 34.6131 32.8937 38.1591 32.8937C38.3885 32.8937 38.6207 32.8825 38.8558 32.8596C38.8615 32.8567 38.8671 32.8567 38.8729 32.8567H38.8758C39.8472 32.7519 40.6034 31.9306 40.6034 30.9337C40.6034 29.866 39.7368 29.0021 38.6691 29.0021C38.6012 29.0021 38.5303 29.005 38.4623 29.0133V29.0104C36.559 29.22 34.2875 27.3705 33.0725 26.1413C33.741 24.3484 35.9925 23.0288 38.6691 23.0288C39.5641 23.0288 40.4109 23.176 41.1672 23.4393C40.8076 22.8899 40.6036 22.2725 40.6036 21.621C40.6036 19.293 43.2008 17.4039 46.4042 17.4039C49.361 17.4039 51.7996 19.0126 52.1563 21.0914C51.2812 21.2839 50.0859 21.3974 48.4888 21.2726V21.2755C48.4378 21.2699 48.3896 21.267 48.3387 21.267C47.2708 21.267 46.4042 22.1309 46.4042 23.2015C46.4042 24.2182 47.1916 25.0481 48.1886 25.1275C48.7605 25.1728 49.3016 25.1926 49.8086 25.1926C53.4142 25.1926 55.4308 24.1588 56.4446 23.3743C58.5009 24.0228 59.9396 25.5127 59.9396 27.246C59.9396 27.8974 59.7357 28.5119 59.3731 29.0615C60.1323 28.8009 60.979 28.6508 61.8712 28.6508C64.8364 28.6508 67.2807 30.2708 67.629 32.3582C66.4395 32.8341 65.7202 32.868 65.7088 32.868C65.7315 32.868 65.7429 32.868 65.7429 32.868H65.74C64.6721 32.868 63.8055 33.7319 63.8055 34.8024C63.8055 35.8674 64.6694 36.7313 65.7344 36.734H65.74C66.026 36.734 68.4135 36.6661 71.7358 34.5701C73.8854 35.1875 75.4064 36.7112 75.4064 38.4929C75.4064 39.1443 75.2025 39.7588 74.8429 40.3112C75.5991 40.0478 76.446 39.9004 77.3409 39.9004C80.5443 39.9004 83.1413 41.7894 83.1413 44.1176C83.1413 46.4458 80.5437 48.3351 77.3404 48.3351Z" fill="#F4BE8E"/>
<path d="M0 42.5347L0 50.2697C0 67.4615 9.34923 82.4695 23.2414 90.4846C23.2158 90.612 23.2017 90.7395 23.2017 90.8727C23.2017 91.9405 24.0683 92.8072 25.1362 92.8072H27.8296H64.9775H67.6707C68.7386 92.8072 69.6052 91.9405 69.6052 90.8727C69.6052 90.7396 69.5911 90.612 69.5655 90.4846C83.4579 82.4666 92.8071 67.4613 92.8071 50.2697V42.5347L0 42.5347Z" fill="#FFA800"/>
<path d="M0 46.4036L0 50.2696H5.80056C5.80056 51.3373 6.6672 52.2039 7.73486 52.2039C8.80271 52.2039 9.66645 51.3373 9.66645 50.2696H13.5352C13.5352 51.3373 14.3992 52.2039 15.4668 52.2039C16.5345 52.2039 17.4011 51.3373 17.4011 50.2696H21.2672C21.2672 51.3373 22.1338 52.2039 23.2017 52.2039C24.2695 52.2039 25.1362 51.3373 25.1362 50.2696H29.0022C29.0022 51.3373 29.8689 52.2039 30.9365 52.2039C32.0044 52.2039 32.8681 51.3373 32.8681 50.2696H36.7369C36.7369 51.3373 37.6008 52.2039 38.6685 52.2039C39.7362 52.2039 40.6028 51.3373 40.6028 50.2696L44.4689 50.2696C44.4689 51.3373 45.3355 52.2039 46.4034 52.2039C47.4712 52.2039 48.3378 51.3373 48.3378 50.2696H52.2037C52.2037 51.3373 53.0704 52.2039 54.1382 52.2039C55.2061 52.2039 56.0698 51.3373 56.0698 50.2696H59.9388C59.9388 51.3373 60.8027 52.2039 61.8704 52.2039C62.938 52.2039 63.8047 51.3373 63.8047 50.2696H67.6706C67.6706 51.3373 68.5372 52.2039 69.605 52.2039C70.6729 52.2039 71.5395 51.3373 71.5395 50.2696H75.4056C75.4056 51.3373 76.2722 52.2039 77.3401 52.2039C78.4079 52.2039 79.2717 51.3373 79.2717 50.2696H83.1405C83.1405 51.3373 84.0044 52.2039 85.072 52.2039C86.1397 52.2039 87.0063 51.3373 87.0063 50.2696H92.8069V46.4036L0 46.4036Z" fill="#35BB9B"/>
<path opacity="0.2" d="M88.9413 42.5347V50.2697C88.9413 67.4615 79.5923 82.4666 65.7 90.4846C65.7255 90.612 65.7397 90.7395 65.7397 90.8727C65.7397 91.9405 64.873 92.8072 63.8052 92.8072H64.9778H67.6711C68.7389 92.8072 69.6056 91.9405 69.6056 90.8727C69.6056 90.7396 69.5914 90.612 69.5659 90.4846C83.4582 82.4666 92.8074 67.4613 92.8074 50.2697V42.5347H88.9413Z" fill="white"/>
</svg>
