<svg width="98" height="98" viewBox="0 0 98 98" fill="none" xmlns="http://www.w3.org/2000/svg">
<path d="M27.5529 36.8159H21.1616V61.5056H27.5529V36.8159Z" fill="#AAA9AF"/>
<path d="M34.1803 97.9999H14.5361V58.3113H34.1805L34.1803 97.9999Z" fill="#FEB907"/>
<path d="M34.1801 97.9999H24.3579V58.3113H34.1801V97.9999Z" fill="#FFA800"/>
<path d="M32.5622 3.1958V23.4349H31.3537V3.1958H24.9625V23.4349H23.7539V3.1958H17.3625V23.4349H16.1541V3.1958H9.7627V25.4175C9.7627 33.4654 16.3099 40.0128 24.358 40.0128C32.4061 40.0128 38.9533 33.4654 38.9533 25.4175V3.1958H32.5622Z" fill="#DDDCDF"/>
<path d="M32.5625 3.1958V23.4349H31.3539V3.1958H24.9627V23.4349H24.3584C24.3584 23.4349 24.3584 36.6751 24.3584 40.0128C32.4063 40.0128 38.9539 33.4654 38.9539 25.4175V3.1958H32.5625Z" fill="#CCCCCF"/>
<path d="M75.4877 36.8159H69.0964V61.5056H75.4877V36.8159Z" fill="#AAA9AF"/>
<path d="M72.2933 40.0127C62.4586 40.0127 56.3491 33.5527 56.3491 23.1542C56.3491 17.9068 57.814 12.4094 60.3683 8.07179C63.4331 2.86669 67.6683 0 72.2933 0C76.9182 0 81.1533 2.86669 84.2184 8.07179C86.7724 12.4094 88.2372 17.9068 88.2372 23.1542C88.2372 33.5531 82.1277 40.0127 72.2933 40.0127Z" fill="#DDDCDF"/>
<path d="M72.2932 40.0127C72.2932 34.9399 72.2932 10.6521 72.2932 0C76.9182 0 81.1532 2.86669 84.2184 8.07179C86.7723 12.4094 88.2372 17.9068 88.2372 23.1542C88.2372 33.5531 82.1277 40.0127 72.2932 40.0127Z" fill="#CCCCCF"/>
<path d="M82.1149 97.9999H62.4707V58.3113H82.1151L82.1149 97.9999Z" fill="#FEB907"/>
<path d="M82.1149 97.9999H72.2927V58.3113H82.1149V97.9999Z" fill="#FFA800"/>
</svg>
